<?xml version="1.0" encoding="iso-8859-1"?>
<!-- Generator: Adobe Illustrator 19.0.0, SVG Export Plug-In . SVG Version: 6.00 Build 0)  -->
<svg xmlns="http://www.w3.org/2000/svg" xmlns:xlink="http://www.w3.org/1999/xlink" version="1.1" id="Layer_1" x="0px" y="0px" viewBox="0 0 511.996 511.996" style="enable-background:new 0 0 511.996 511.996;" xml:space="preserve" width="512px" height="512px">
<g>
	<g>
		<path d="M501.34,443.398h-53.343V367.37c6.047,0.906,11.438,1.328,16.249,1.328c42.891,0,38.812-33.172,38.812-33.172    l-55.062-34.594v-60.195c0-5.891-4.781-10.664-10.656-10.664H335.248l-60.5-37.414C235.279,160.246,139.601,82.582,94.655,54.332    c-7.188-4.523-15.609-7.078-24.226-7.078c-14.32,0-29.18,7.07-39.773,23.922c-16.977,27-6.578,52.945,12.562,64.976    c39.796,25.023,131.679,69.171,184.343,93.921H74.664c-5.891,0-10.664,4.773-10.664,10.664v202.662H10.664    C4.773,443.398,0,448.18,0,454.07s4.773,10.672,10.664,10.672h319.99H501.34c5.875,0,10.656-4.781,10.656-10.672    S507.215,443.398,501.34,443.398z M447.997,326.12l29.921,18.812c-2.953,1.547-7.797,2.438-13.672,2.438    c-4.062,0-9.405-0.406-16.249-1.656V326.12z M54.57,118.097c-9.328-5.867-16.461-18.702-5.851-35.57    C54.453,73.41,61.961,68.59,70.43,68.59c4.461,0,8.913,1.312,12.874,3.797c44.508,27.984,142.18,107.397,179.991,138.483l-6,9.547    C212.905,199.769,99.093,146.082,54.57,118.097z M319.998,443.398H85.335V251.401h21.328v21.344    c0,5.875,4.781,10.656,10.672,10.656s10.664-4.781,10.664-10.656v-21.344h42.664v53.344c0,5.875,4.781,10.656,10.672,10.656    s10.664-4.781,10.664-10.656v-53.344h55.132l2.961,22.969c25.844,16.25,49.062,29.906,69.906,41.344V443.398z M319.998,291.292    c-15.781-8.891-32.469-18.766-50.039-29.68l-2.273-17.641l14.031-22.335l38.281,24.054V291.292z M426.652,443.398h-10.655v-32    c0-5.891-4.781-10.656-10.656-10.656c-5.906,0-10.688,4.766-10.688,10.656v32h-53.312V251.401h21.312v21.344    c0,5.875,4.781,10.656,10.688,10.656c5.875,0,10.656-4.781,10.656-10.656v-21.344h42.655V443.398z" fill="#636669"/>
	</g>
</g>
<g>
</g>
<g>
</g>
<g>
</g>
<g>
</g>
<g>
</g>
<g>
</g>
<g>
</g>
<g>
</g>
<g>
</g>
<g>
</g>
<g>
</g>
<g>
</g>
<g>
</g>
<g>
</g>
<g>
</g>
</svg>
