<?xml version="1.0"?>
<svg xmlns="http://www.w3.org/2000/svg" xmlns:xlink="http://www.w3.org/1999/xlink" version="1.1" id="Capa_1" x="0px" y="0px" viewBox="0 0 512 512" style="enable-background:new 0 0 512 512;" xml:space="preserve" width="512px" height="512px" class=""><g><g>
	<g>
		<path d="M478.237,353.238L478.237,353.238V160.641h-59.722c5.953-9.64,9.398-20.986,9.398-33.125    c0-34.869-28.369-63.238-63.238-63.238h-4.015c-31.549,0-57.215,25.667-57.215,57.216h30.113    c0-14.944,12.157-27.102,27.101-27.102h4.015c18.265,0,33.125,14.86,33.125,33.125s-14.86,33.125-33.125,33.125H99.009    c-35.977,0-65.246,29.269-65.246,65.246v127.352H0l25.046,94.484h461.907L512,353.238H478.237z M63.877,225.887    c0-19.373,15.76-35.132,35.132-35.132h195.469v98.371h30.113v-98.371h123.531v162.484H324.592v-34h-30.113v34H63.877V225.887z     M463.782,417.609H48.218l-9.082-34.257h433.729L463.782,417.609z" data-original="#000000" class="active-path" data-old_color="#000000" fill="#575757"/>
	</g>
</g></g> </svg>
